:SAMPLES-PER-SECOND 30
:FULLY-SPECIFIED
:DEGREES
660
root  49.545 34.8973 38.5521 -168.396 26.6869 -178.361
RightUpLeg  -18.525 8.51528 -2.53162
RightLeg  18.8644 -6.60096 -1.78684
RightFoot  -0.580338 -0.00214411 0.255544
RightToes  -25.8615 -0.116486 -0.222199
Spine  -0.238033 -0.830807 -0.099287
Spine1  -0.504225 -1.60568 0.455296
HEad  -63.0191 2.94834 -1.05686
LeftShoulder1  -1.94126e-019 -3.10601e-018 -2.51263e-017
LeftArm  -17.4336 16.5226 -74.5188
LeftForeArm  24.4147 -27.4908 -4.58861
LeftHand  -0.519846 0.25915 11.8158
RightShoulder  -4.96962e-017 0 -2.36833e-017
RightArm  -25.2339 -24.6507 76.4994
RightForeArm  48.9555 19.1148 1.67448
RightHand  -0.387796 -1.26822 -10.8328
LeftUpLeg  -21.5837 -9.98848 1.58641
LeftLeg  18.0096 -0.79756 -0.206304
LeftFoot  4.4736 0.00332955 0.0762664
LeftToes  -24.9955 1.31378e-006 1.14341e-007
661
root  49.8424 34.9009 38.7407 -167.77 19.1247 -177.686
RightUpLeg  -18.8075 12.6038 -2.06877
RightLeg  14.6072 1.64633 0.317809
RightFoot  2.2849 0.00631953 0.194416
RightToes  -31.36 -0.153397 -0.261306
Spine  -0.0664575 -0.8491 0.494428
Spine1  -0.159264 -1.62417 1.59727
HEad  -63.1616 3.66249 -0.712931
LeftShoulder1  -1.94126e-019 -3.10601e-018 -2.51263e-017
LeftArm  -17.0067 14.6385 -75.4089
LeftForeArm  24.5254 -27.9158 -4.69925
LeftHand  -0.49872 0.250397 11.3187
RightShoulder  -4.96962e-017 0 -2.36833e-017
RightArm  -24.7715 -23.9638 75.0152
RightForeArm  47.8107 19.4966 1.79236
RightHand  -0.395549 -1.11143 -10.6631
LeftUpLeg  -23.5007 -12.6676 3.50582
LeftLeg  18.7068 -4.89571 -1.31496
LeftFoot  4.85945 0.0193517 -0.294564
LeftToes  -34.3296 1.31378e-006 1.14341e-007
662
root  50.1733 34.859 38.9064 -167.76 12.2535 -177.595
RightUpLeg  -19.6979 11.6582 -1.08055
RightLeg  15.9873 5.96135 1.29789
RightFoot  2.65439 0.00257168 0.381584
RightToes  -22.1075 -0.0935161 -0.193547
Spine  0.193279 -0.631024 0.855238
Spine1  0.369202 -1.17562 2.27861
HEad  -63.4468 3.63001 -0.189945
LeftShoulder1  -1.94126e-019 -3.10601e-018 -2.51263e-017
LeftArm  -16.3554 12.7922 -76.2009
LeftForeArm  24.7625 -28.1312 -4.76146
LeftHand  -0.492866 0.151232 10.9833
RightShoulder  -4.96962e-017 0 -2.36833e-017
RightArm  -25.1509 -23.1191 73.6899
RightForeArm  47.5531 19.1924 1.74766
RightHand  -0.393562 -1.16528 -10.7386
LeftUpLeg  -25.3678 -13.959 4.56539
LeftLeg  20.088 -9.2559 -2.71427
LeftFoot  5.05468 0.039148 -0.725429
LeftToes  -43.1372 1.31378e-006 1.14341e-007
663
root  50.4835 34.7566 39.01 -168.251 5.99304 -177.984
RightUpLeg  -19.1258 7.31009 -0.156714
RightLeg  17.271 3.98523 0.96175
RightFoot  1.0952 0.00287968 0.183649
RightToes  -23.1915 -0.0999554 -0.201974
Spine  0.44712 -0.263755 0.977904
Spine1  0.884831 -0.426005 2.47047
HEad  -63.6914 3.20722 0.581495
LeftShoulder1  -1.94126e-019 -3.10601e-018 -2.51263e-017
LeftArm  -14.6261 11.4618 -76.5339
LeftForeArm  24.3374 -28.4191 -4.85466
LeftHand  -0.472863 0.15497 10.5463
RightShoulder  -4.96962e-017 0 -2.36833e-017
RightArm  -24.5209 -22.6003 72.3017
RightForeArm  46.9041 18.5318 1.65492
RightHand  -0.32573 -1.77245 -10.2807
LeftUpLeg  -26.7407 -15.1693 4.81676
LeftLeg  21.6364 -11.4684 -3.68949
LeftFoot  4.83777 0.045091 -0.905928
LeftToes  -46.929 1.31378e-006 1.14341e-007
664
root  50.8242 34.6483 39.079 -168.725 0.527771 -178.137
RightUpLeg  -18.009 0.405498 1.13052
RightLeg  17.0042 5.50138 1.30014
RightFoot  0.615991 0.00167564 0.149366
RightToes  -25.3779 -0.113422 -0.218593
Spine  0.725597 0.0936719 1.23666
Spine1  1.44526 0.301428 2.93254
HEad  -63.8266 3.0072 0.844495
LeftShoulder1  -1.94126e-019 -3.10601e-018 -2.51263e-017
LeftArm  -13.0469 10.6531 -76.8003
LeftForeArm  24.1977 -28.2728 -4.82746
LeftHand  -0.463677 -0.0765657 9.92409
RightShoulder  -4.96962e-017 0 -2.36833e-017
RightArm  -22.6843 -21.7166 70.5896
RightForeArm  46.4698 17.7672 1.53491
RightHand  -0.30286 -2.0056 -10.1702
LeftUpLeg  -27.8769 -14.7853 4.86561
LeftLeg  23.1583 -10.1577 -3.57229
LeftFoot  4.23787 0.0314348 -0.688114
LeftToes  -45.2264 1.31378e-006 1.14341e-007
665
root  51.2236 34.5729 39.1738 -168.587 -3.73227 -177.945
RightUpLeg  -18.7008 -2.54041 2.38457
RightLeg  18.5015 4.41877 1.16661
RightFoot  -0.347187 -0.0016166 0.0599875
RightToes  -23.29 -0.100548 -0.202734
Spine  0.708695 0.616076 1.51881
Spine1  1.42448 1.37469 3.43486
HEad  -63.2525 2.83738 1.15484
LeftShoulder1  -1.94126e-019 -3.10601e-018 -2.51263e-017
LeftArm  -13.1555 10.9339 -77.1911
LeftForeArm  26.0877 -28.1658 -4.73849
LeftHand  -0.475691 -0.309784 9.78306
RightShoulder  -4.96962e-017 0 -2.36833e-017
RightArm  -23.947 -20.6223 69.5821
RightForeArm  49.5055 16.4314 1.22876
RightHand  -0.325715 -1.68734 -10.0531
LeftUpLeg  -29.4303 -10.6039 4.69631
LeftLeg  24.9289 -2.43767 -0.951137
LeftFoot  3.18516 0.00546116 -0.0349192
LeftToes  -36.2194 1.31378e-006 1.14341e-007
666
root  51.6035 34.5579 39.1615 -168.803 -6.65594 -177.905
RightUpLeg  -18.4094 -3.02774 3.18101
RightLeg  18.7708 2.19093 0.589032
RightFoot  -0.964753 -0.00436091 0.0588025
RightToes  -21.1039 -0.0876974 -0.185638
Spine  0.728161 1.07203 1.58067
Spine1  1.46683 2.31686 3.51576
HEad  -63.0485 2.97379 1.30423
LeftShoulder1  -1.94126e-019 -3.10601e-018 -2.51263e-017
LeftArm  -14.7216 12.6683 -77.2515
LeftForeArm  27.8773 -28.1661 -4.67033
LeftHand  -0.506927 -0.283826 10.4656
RightShoulder  -4.96962e-017 0 -2.36833e-017
RightArm  -25.0867 -19.0106 68.9778
RightForeArm  52.5192 14.8115 1.21746
RightHand  -0.358544 -1.68897 -11.0949
LeftUpLeg  -29.5539 -2.65099 3.46753
LeftLeg  26.213 7.23893 2.9885
LeftFoot  1.70449 -0.00272616 0.344808
LeftToes  -27.995 1.31378e-006 1.14341e-007
667
root  51.9474 34.5649 39.0737 -169.34 -9.64404 -177.671
RightUpLeg  -17.3109 -4.1843 4.17649
RightLeg  18.1248 0.502593 0.128234
RightFoot  -1.30135 -0.00695725 0.0932273
RightToes  -18.8516 -0.0751499 -0.167525
Spine  0.746698 1.02989 1.68694
Spine1  1.49381 2.27479 3.67608
HEad  -62.7872 3.60664 1.54723
LeftShoulder1  -1.94126e-019 -3.10601e-018 -2.51263e-017
LeftArm  -16.1913 15.6964 -76.961
LeftForeArm  26.7683 -28.2044 -4.69863
LeftHand  -0.486097 0.10646 10.7452
RightShoulder  -4.96962e-017 0 -2.36833e-017
RightArm  -25.005 -17.264 68.6726
RightForeArm  53.554 14.0401 1.28833
RightHand  -0.309698 -2.29956 -11.3641
LeftUpLeg  -29.3207 6.61466 2.33267
LeftLeg  28.0717 14.1992 6.34215
LeftFoot  0.245516 -4.49905e-005 0.182645
LeftToes  -21.0974 1.31378e-006 1.14341e-007
668
root  52.1748 34.5834 38.9515 -169.763 -12.6393 -177.758
RightUpLeg  -16.2145 -6.96824 4.76096
RightLeg  17.3261 0.308574 0.0740433
RightFoot  -1.51752 -0.00615361 0.103933
RightToes  -18.5373 -0.0734557 -0.164959
Spine  0.651569 0.797116 1.63781
Spine1  1.28676 1.83055 3.57664
HEad  -62.33 3.75782 1.8123
LeftShoulder1  -1.94126e-019 -3.10601e-018 -2.51263e-017
LeftArm  -16.8879 18.6881 -76.4179
LeftForeArm  22.7867 -26.847 -4.60606
LeftHand  -0.442194 0.543356 10.618
RightShoulder  -4.96962e-017 0 -2.36833e-017
RightArm  -26.9393 -16.1667 69.0836
RightForeArm  54.283 14.2473 1.25149
RightHand  -0.290334 -2.53579 -11.4814
LeftUpLeg  -29.0338 14.9883 1.2174
LeftLeg  29.8366 18.4437 8.82691
LeftFoot  0.53663 -0.000148396 0.325893
LeftToes  -19.0417 1.31378e-006 1.14341e-007
669
root  52.3585 34.6172 38.8124 -170.137 -15.7532 -177.692
RightUpLeg  -15.1081 -9.21817 5.35134
RightLeg  16.3471 -0.482568 -0.108872
RightFoot  -1.58433 -0.0059901 0.135788
RightToes  -18.0807 -0.0720741 -0.159305
Spine  0.477907 0.545451 1.57879
Spine1  0.926747 1.33449 3.47554
HEad  -62.0195 3.27454 2.17652
LeftShoulder1  -1.94126e-019 -3.10601e-018 -2.51263e-017
LeftArm  -19.1803 20.7377 -76.1551
LeftForeArm  21.942 -23.6882 -4.11067
LeftHand  -0.416806 0.12652 9.25141
RightShoulder  -4.96962e-017 0 -2.36833e-017
RightArm  -27.0085 -16.0709 69.5792
RightForeArm  51.4278 15.634 1.17667
RightHand  -0.267657 -2.74293 -11.3483
LeftUpLeg  -28.5056 21.2093 1.02017
LeftLeg  30.8988 18.0015 9.02669
LeftFoot  0.98452 -0.00286976 0.495612
LeftToes  -17.4643 1.31378e-006 1.14341e-007
670
root  52.4418 34.6728 38.704 -170.353 -18.7149 -177.909
RightUpLeg  -13.9602 -11.5149 5.51547
RightLeg  14.9606 -1.07855 -0.214994
RightFoot  -1.56493 -0.00557844 0.163241
RightToes  -17.2831 -0.0706542 -0.154626
Spine  0.260277 0.346234 1.44735
Spine1  0.482621 0.916851 3.27086
HEad  -62.0162 2.29137 2.42842
LeftShoulder1  -1.94126e-019 -3.10601e-018 -2.51263e-017
LeftArm  -21.1571 21.7062 -76.1176
LeftForeArm  23.4704 -19.0152 -3.34197
LeftHand  -0.39114 0.447807 9.21653
RightShoulder  -4.96962e-017 0 -2.36833e-017
RightArm  -27.2532 -16.5405 69.9708
RightForeArm  48.4553 17.3778 1.38134
RightHand  -0.262914 -2.78544 -11.3142
LeftUpLeg  -27.0101 22.7725 1.77236
LeftLeg  31.2463 16.1318 8.24784
LeftFoot  0.435272 -0.0004522 0.280675
LeftToes  -17.9629 1.31378e-006 1.14341e-007
671
root  52.4184 34.728 38.6214 -170.635 -21.7672 -178.235
RightUpLeg  -12.8077 -12.9266 5.31285
RightLeg  14.0788 -2.70965 -0.496392
RightFoot  -1.42774 -0.00624383 0.217647
RightToes  -17.1392 -0.0695163 -0.154195
Spine  0.0514554 0.206744 1.31236
Spine1  0.0614634 0.605869 3.07039
HEad  -62.0753 1.00298 2.61789
LeftShoulder1  -1.94126e-019 -3.10601e-018 -2.51263e-017
LeftArm  -23.0038 22.3053 -76.3199
LeftForeArm  26.603 -14.4207 -2.56402
LeftHand  -0.424453 0.462844 10.0321
RightShoulder  -4.96962e-017 0 -2.36833e-017
RightArm  -27.4265 -17.483 70.1835
RightForeArm  46.6857 19.0153 1.75232
RightHand  -0.267277 -2.78003 -11.4889
LeftUpLeg  -24.9283 20.7032 2.79213
LeftLeg  31.5301 15.4105 7.98697
LeftFoot  -0.629992 -0.00120732 -0.058078
LeftToes  -15.7537 1.31378e-006 1.14341e-007
